<svg xmlns="http://www.w3.org/2000/svg" width="1200" height="630" viewBox="0 0 1200 630" role="img" aria-label="AeroPulse Weather social card">
  <defs>
    <linearGradient id="bg" x1="0" x2="1" y1="0" y2="1">
      <stop offset="0" stop-color="#051221" />
      <stop offset="1" stop-color="#0f3350" />
    </linearGradient>
    <linearGradient id="glow" x1="0" x2="1" y1="0" y2="0">
      <stop offset="0" stop-color="#45d2ff" />
      <stop offset="1" stop-color="#9de6ff" />
    </linearGradient>
    <linearGradient id="sun" x1="0" x2="1" y1="0" y2="1">
      <stop offset="0" stop-color="#ffe58c" />
      <stop offset="1" stop-color="#ff9f62" />
    </linearGradient>
  </defs>

  <rect width="1200" height="630" fill="url(#bg)" />
  <circle cx="185" cy="170" r="120" fill="#1c6e93" opacity="0.24" />
  <circle cx="1050" cy="500" r="180" fill="#2b89b8" opacity="0.18" />
  <rect x="60" y="54" width="1080" height="522" rx="36" fill="#0b2136" opacity="0.84" stroke="#24526f" />

  <circle cx="220" cy="250" r="68" fill="url(#sun)" />
  <path
    d="M392 360H220c-45 0-82-36-82-82 0-41 31-75 70-81 8-52 53-90 108-90 56 0 103 40 111 94 36 4 64 34 64 70 0 49-40 89-89 89Z"
    fill="#b9def1"
  />

  <text x="510" y="242" fill="url(#glow)" font-family="Segoe UI, Arial, sans-serif" font-size="56" font-weight="700">
    AeroPulse Weather
  </text>
  <text x="510" y="308" fill="#d9f2ff" font-family="Segoe UI, Arial, sans-serif" font-size="34">
    Live Forecast, Air Quality, and Wind Intelligence
  </text>
  <text x="510" y="372" fill="#9bc5db" font-family="Segoe UI, Arial, sans-serif" font-size="28">
    12-hour outlook • 14-day forecast • City search + geolocation
  </text>
</svg>
